<svg width="405" height="155" viewBox="0 0 405 155" fill="none" xmlns="http://www.w3.org/2000/svg">
<path d="M50.1364 26.5454L20.1364 138H1.18182L31.1818 26.5454H50.1364ZM119.748 54.1818L95.7932 124H70.3386L46.4295 54.1818H69.8386L82.7023 102.273H83.4295L96.3386 54.1818H119.748ZM121.87 124V54.1818H144.098V124H121.87ZM133.007 46.0455C129.886 46.0455 127.204 45.0152 124.961 42.9545C122.719 40.8636 121.598 38.3485 121.598 35.4091C121.598 32.5 122.719 30.0151 124.961 27.9545C127.204 25.8636 129.886 24.8182 133.007 24.8182C136.158 24.8182 138.84 25.8636 141.052 27.9545C143.295 30.0151 144.416 32.5 144.416 35.4091C144.416 38.3485 143.295 40.8636 141.052 42.9545C138.84 45.0152 136.158 46.0455 133.007 46.0455ZM151.845 124V54.1818H172.982V67H173.755C175.209 62.7576 177.664 59.4091 181.118 56.9545C184.573 54.5 188.694 53.2727 193.482 53.2727C198.33 53.2727 202.482 54.5152 205.936 57C209.391 59.4848 211.588 62.8182 212.527 67H213.255C214.558 62.8485 217.103 59.5303 220.891 57.0455C224.679 54.5303 229.148 53.2727 234.3 53.2727C240.906 53.2727 246.27 55.3939 250.391 59.6364C254.512 63.8485 256.573 69.6364 256.573 77V124H234.345V82.0909C234.345 78.6061 233.452 75.9545 231.664 74.1364C229.876 72.2879 227.558 71.3636 224.709 71.3636C221.648 71.3636 219.239 72.3636 217.482 74.3636C215.755 76.3333 214.891 78.9848 214.891 82.3182V124H193.527V81.8636C193.527 78.6212 192.648 76.0606 190.891 74.1818C189.133 72.303 186.815 71.3636 183.936 71.3636C181.997 71.3636 180.285 71.8333 178.8 72.7727C177.315 73.6818 176.148 74.9848 175.3 76.6818C174.482 78.3788 174.073 80.3788 174.073 82.6818V124H151.845ZM304.727 125.182C300.273 125.182 296.318 124.439 292.864 122.955C289.439 121.439 286.727 119.167 284.727 116.136C282.758 113.076 281.773 109.242 281.773 104.636C281.773 100.758 282.455 97.4848 283.818 94.8182C285.182 92.1515 287.061 89.9848 289.455 88.3182C291.848 86.6515 294.606 85.3939 297.727 84.5455C300.848 83.6667 304.182 83.0758 307.727 82.7727C311.697 82.4091 314.894 82.0303 317.318 81.6364C319.742 81.2121 321.5 80.6212 322.591 79.8636C323.712 79.0758 324.273 77.9697 324.273 76.5455V76.3182C324.273 73.9848 323.47 72.1818 321.864 70.9091C320.258 69.6364 318.091 69 315.364 69C312.424 69 310.061 69.6364 308.273 70.9091C306.485 72.1818 305.348 73.9394 304.864 76.1818L284.364 75.4545C284.97 71.2121 286.53 67.4242 289.045 64.0909C291.591 60.7273 295.076 58.0909 299.5 56.1818C303.955 54.2424 309.303 53.2727 315.545 53.2727C320 53.2727 324.106 53.803 327.864 54.8636C331.621 55.8939 334.894 57.4091 337.682 59.4091C340.47 61.3788 342.621 63.803 344.136 66.6818C345.682 69.5606 346.455 72.8485 346.455 76.5455V124H325.545V114.273H325C323.758 116.636 322.167 118.636 320.227 120.273C318.318 121.909 316.061 123.136 313.455 123.955C310.879 124.773 307.97 125.182 304.727 125.182ZM311.591 110.636C313.985 110.636 316.136 110.152 318.045 109.182C319.985 108.212 321.53 106.879 322.682 105.182C323.833 103.455 324.409 101.455 324.409 99.1818V92.5455C323.773 92.8788 323 93.1818 322.091 93.4545C321.212 93.7273 320.242 93.9848 319.182 94.2273C318.121 94.4697 317.03 94.6818 315.909 94.8636C314.788 95.0455 313.712 95.2121 312.682 95.3636C310.591 95.697 308.803 96.2121 307.318 96.9091C305.864 97.6061 304.742 98.5152 303.955 99.6364C303.197 100.727 302.818 102.03 302.818 103.545C302.818 105.848 303.636 107.606 305.273 108.818C306.939 110.03 309.045 110.636 311.591 110.636ZM353.645 124V54.1818H375.873V124H353.645ZM364.782 46.0455C361.661 46.0455 358.979 45.0152 356.736 42.9545C354.494 40.8636 353.373 38.3485 353.373 35.4091C353.373 32.5 354.494 30.0151 356.736 27.9545C358.979 25.8636 361.661 24.8182 364.782 24.8182C367.933 24.8182 370.615 25.8636 372.827 27.9545C375.07 30.0151 376.191 32.5 376.191 35.4091C376.191 38.3485 375.07 40.8636 372.827 42.9545C370.615 45.0152 367.933 46.0455 364.782 46.0455Z" fill="#41BAB3"/>
<rect x="270" y="16" width="128" height="132" rx="13" stroke="#5C6F96" stroke-width="14"/>
</svg>
